<svg xmlns="http://www.w3.org/2000/svg" xmlns:xlink="http://www.w3.org/1999/xlink" contentStyleType="text/css" data-diagram-type="DESCRIPTION" height="207px" preserveAspectRatio="none" style="width:1586px;height:207px;background:#FFFFFF;" version="1.1" viewBox="0 0 1586 207" width="1586px" zoomAndPan="magnify"><defs/><g><!--entity User--><g class="entity" data-entity="User" data-source-line="1" data-uid="ent0002" id="entity_User"><ellipse cx="813.4151" cy="14" fill="#F1F1F1" rx="8" ry="8" style="stroke:#181818;stroke-width:0.5;"/><path d="M813.4151,22 L813.4151,49 M800.4151,30 L826.4151,30 M813.4151,49 L800.4151,64 M813.4151,49 L826.4151,64" fill="none" style="stroke:#181818;stroke-width:0.5;"/><text fill="#000000" font-family="sans-serif" font-size="14" lengthAdjust="spacing" textLength="31.9102" x="797.46" y="78.4951">User</text></g><!--entity Use#1--><g class="entity" data-entity="Use#1" data-source-line="1" data-uid="ent0003" id="entity_Use#1"><ellipse cx="142.4123" cy="171.4825" fill="#F1F1F1" rx="136.4123" ry="29.6825" style="stroke:#181818;stroke-width:0.5;"/><text fill="#000000" font-family="sans-serif" font-size="14" lengthAdjust="spacing" textLength="254.0781" x="15.3733" y="176.1309">Cr&#233;er un espace d&#233;di&#233; au BlindTest.</text></g><!--entity Use#2--><g class="entity" data-entity="Use#2" data-source-line="2" data-uid="ent0005" id="entity_Use#2"><ellipse cx="422.4119" cy="171.4844" fill="#F1F1F1" rx="108.4219" ry="24.0844" style="stroke:#181818;stroke-width:0.5;"/><text fill="#000000" font-family="sans-serif" font-size="14" lengthAdjust="spacing" textLength="194.4619" x="325.181" y="176.1328">Choisissez un pseudonyme.</text></g><!--entity Use#3--><g class="entity" data-entity="Use#3" data-source-line="3" data-uid="ent0007" id="entity_Use#3"><ellipse cx="678.4059" cy="171.4832" fill="#F1F1F1" rx="113.0159" ry="25.0032" style="stroke:#181818;stroke-width:0.5;"/><text fill="#000000" font-family="sans-serif" font-size="14" lengthAdjust="spacing" textLength="204.3877" x="576.2121" y="176.1316">Participer &#224; un salon de jeux.</text></g><!--entity Use#4--><g class="entity" data-entity="Use#4" data-source-line="4" data-uid="ent0009" id="entity_Use#4"><ellipse cx="949.4068" cy="171.4794" fill="#F1F1F1" rx="122.8968" ry="26.9794" style="stroke:#181818;stroke-width:0.5;"/><text fill="#000000" font-family="sans-serif" font-size="14" lengthAdjust="spacing" textLength="225.5244" x="836.6446" y="176.1278">Participer &#224; une partie en cours.</text></g><!--entity Use#5--><g class="entity" data-entity="Use#5" data-source-line="5" data-uid="ent0011" id="entity_Use#5"><ellipse cx="1198.4127" cy="171.4765" fill="#F1F1F1" rx="91.0827" ry="20.6165" style="stroke:#181818;stroke-width:0.5;"/><text fill="#000000" font-family="sans-serif" font-size="14" lengthAdjust="spacing" textLength="156.1875" x="1120.3189" y="176.125">Remporter des points.</text></g><!--entity Use#6--><g class="entity" data-entity="Use#6" data-source-line="6" data-uid="ent0013" id="entity_Use#6"><ellipse cx="1452.4127" cy="171.4765" fill="#F1F1F1" rx="127.8827" ry="27.9765" style="stroke:#181818;stroke-width:0.5;"/><text fill="#000000" font-family="sans-serif" font-size="14" lengthAdjust="spacing" textLength="236.0996" x="1334.3629" y="176.125">Consulter l'historique des parties.</text></g><!--link User to Use#1--><g class="link" data-entity-1="User" data-entity-2="Use#1" data-source-line="1" data-uid="lnk4" id="link_User_Use#1"><path d="M797.16,47.69 C722.46,61.7 414.6072,119.4342 250.0372,150.2942" fill="none" id="User-to-Use#1" style="stroke:#181818;stroke-width:1;"/><polygon fill="#181818" points="244.14,151.4,253.723,153.6727,249.0543,150.4785,252.2486,145.8098,244.14,151.4" style="stroke:#181818;stroke-width:1;"/></g><!--link User to Use#2--><g class="link" data-entity-1="User" data-entity-2="Use#2" data-source-line="2" data-uid="lnk6" id="link_User_Use#2"><path d="M797.11,49.89 C744.07,66.96 580.2616,119.6821 488.4916,149.2121" fill="none" id="User-to-Use#2" style="stroke:#181818;stroke-width:1;"/><polygon fill="#181818" points="482.78,151.05,492.5726,152.1009,487.5397,149.5184,490.1221,144.4854,482.78,151.05" style="stroke:#181818;stroke-width:1;"/></g><!--link User to Use#3--><g class="link" data-entity-1="User" data-entity-2="Use#3" data-source-line="3" data-uid="lnk8" id="link_User_Use#3"><path d="M797.13,59.82 C773.99,81.4 735.7491,117.0391 708.3691,142.5591" fill="none" id="User-to-Use#3" style="stroke:#181818;stroke-width:1;"/><polygon fill="#181818" points="703.98,146.65,713.2909,143.4397,707.6376,143.2409,707.8364,137.5875,703.98,146.65" style="stroke:#181818;stroke-width:1;"/></g><!--link User to Use#4--><g class="link" data-entity-1="User" data-entity-2="Use#4" data-source-line="4" data-uid="lnk10" id="link_User_Use#4"><path d="M829.82,59.82 C852.57,80.87 889.5956,115.1356 917.2256,140.6956" fill="none" id="User-to-Use#4" style="stroke:#181818;stroke-width:1;"/><polygon fill="#181818" points="921.63,144.77,917.7397,135.7221,917.9597,141.3746,912.3071,141.5946,921.63,144.77" style="stroke:#181818;stroke-width:1;"/></g><!--link User to Use#5--><g class="link" data-entity-1="User" data-entity-2="Use#5" data-source-line="5" data-uid="lnk12" id="link_User_Use#5"><path d="M829.47,49.89 C883.47,67.54 1054.4169,123.416 1142.2269,152.116" fill="none" id="User-to-Use#5" style="stroke:#181818;stroke-width:1;"/><polygon fill="#181818" points="1147.93,153.98,1140.618,147.3819,1143.1774,152.4267,1138.1327,154.986,1147.93,153.98" style="stroke:#181818;stroke-width:1;"/></g><!--link User to Use#6--><g class="link" data-entity-1="User" data-entity-2="Use#6" data-source-line="6" data-uid="lnk14" id="link_User_Use#6"><path d="M829.62,47.83 C891.6,59.99 1119.61,104.75 1307.41,141.8 C1324.15,145.1 1336.0936,147.4578 1353.3136,150.8578" fill="none" id="User-to-Use#6" style="stroke:#181818;stroke-width:1;"/><polygon fill="#181818" points="1359.2,152.02,1351.1453,146.3524,1354.2947,151.0515,1349.5956,154.2009,1359.2,152.02" style="stroke:#181818;stroke-width:1;"/></g><!--SRC=[RSz12i8m443HlQSOuaAxKD2gYovSs0k8w052C-18JM8c0VKqRdkENin4KOfr5pvlXabnO7G5J2Ph6CVdS9ODYfyqxwUydnRzjEodLJOGfMiRT10q85jP8QYsKTGs80DiQj9gZ-od0YH_JnBbqH0JCzxJd6KCokZR6JiidYcsqdcgoCRrxID9bhNHe11E6AuTdF_123OL1DHGcU2uu-Fln0xFrZWVkK86QqZxBbccCutcK2TIZux4tZYw17pxr-uuyF6hx0a0]--></g></svg>